<svg xmlns="http://www.w3.org/2000/svg" width="28.809" height="28.958" viewBox="0 0 28.809 28.958">
  <g id="Group_228" data-name="Group 228" transform="translate(0.15 0.15)">
    <path id="Path_76" data-name="Path 76" d="M36.258,21.657a1.056,1.056,0,0,0-.81-.379H14.16l-.645-3.544A2.111,2.111,0,0,0,11.438,16H9.056a1.056,1.056,0,1,0,0,2.111h2.375L14.8,36.624a3.167,3.167,0,0,0,.7,1.487,3.695,3.695,0,1,0,5.859,1.114H27.36A3.694,3.694,0,1,0,30.7,37.114H17.919a1.056,1.056,0,0,1-1.038-.867l-.418-2.3H31.77a3.167,3.167,0,0,0,3.115-2.6l1.6-8.823A1.056,1.056,0,0,0,36.258,21.657ZM19.612,40.808a1.584,1.584,0,1,1-1.584-1.584A1.584,1.584,0,0,1,19.612,40.808Zm12.668,0A1.584,1.584,0,1,1,30.7,39.225,1.584,1.584,0,0,1,32.281,40.808Zm.528-9.84a1.056,1.056,0,0,1-1.042.867H16.079L14.544,23.39H34.182Z" transform="translate(-8 -16)" stroke="#fff" stroke-width="0.3"/>
  </g>
</svg>
