<svg id="refund" xmlns="http://www.w3.org/2000/svg" width="45.841" height="52.08" viewBox="0 0 45.841 52.08">
  <g id="Group_12" data-name="Group 12" transform="translate(0)">
    <g id="Group_11" data-name="Group 11">
      <path id="Path_1" data-name="Path 1" d="M48.59,11.048l-2.513,3.228a18.843,18.843,0,1,1-10.515-3.923l-3.536,3.709,2.623,2.5,5.581-5.86v0l2.5-2.626-2.621-2.5h0L34.253,0l-2.5,2.626,3.817,3.635a22.919,22.919,0,0,0-4.6,45.536,23.164,23.164,0,0,0,3.611.284A22.929,22.929,0,0,0,48.59,11.048Z" transform="translate(-11.608)" fill="#2196f3"/>
      <path id="Path_2" data-name="Path 2" d="M78.444,91.968h0V89.614c2.791-.312,5.506-2.074,5.506-5.421,0-4.547-4.228-5.069-7.317-5.449-1.975-.236-3.486-.51-3.486-1.706,0-1.663,2.344-1.842,3.352-1.842a4.55,4.55,0,0,1,3.635,1.6l.158.261,3.1-1.436-.153-.313a6.123,6.123,0,0,0-4.8-3.323V69.913H74.811v2.063c-3.382.5-5.39,2.376-5.39,5.061,0,4.378,3.975,4.823,6.876,5.148,2.585.3,3.788.943,3.788,2.007,0,2.033-2.815,2.192-3.678,2.192-1.921,0-3.773-.958-4.309-2.231l-.133-.314L68.6,85.268l.134.314a7.108,7.108,0,0,0,6.082,4.146v2.241Z" transform="translate(-53.278 -51.122)" fill="#2196f3"/>
    </g>
  </g>
</svg>
