<svg xmlns="http://www.w3.org/2000/svg" width="67.132" height="43.88" viewBox="0 0 67.132 43.88">
  <path id="shipping" d="M67.13,95.774c0-.013,0-.025,0-.038a1.538,1.538,0,0,0-1.545-1.512h-.406L58.911,82.108a1.54,1.54,0,0,0-1.374-.83l-10.7,0,.408-3.236a4.4,4.4,0,0,0-4.432-4.868H9.607a1.641,1.641,0,0,0-1.624,1.479l-.333,2.666H26.57a2.156,2.156,0,0,1,2.166,2.224,2.3,2.3,0,0,1-2.283,2.224H20.143l0,.009H1.614A1.624,1.624,0,0,0,0,83.348a1.524,1.524,0,0,0,1.532,1.573H26.066a2.306,2.306,0,0,1,1.958,2.353A2.46,2.46,0,0,1,25.6,89.656H8.684a1.64,1.64,0,0,0-1.63,1.589A1.54,1.54,0,0,0,8.6,92.834H25.316a2.306,2.306,0,0,1,1.992,2.358,2.46,2.46,0,0,1-2.446,2.383H5.686v0H4.075a1.64,1.64,0,0,0-1.63,1.589,1.54,1.54,0,0,0,1.547,1.589H5.382l-.544,5.691a4.4,4.4,0,0,0,4.432,4.868h1.2a6.932,6.932,0,0,0,6.859,5.739,7.4,7.4,0,0,0,7.159-5.739h14.97a5.072,5.072,0,0,0,3.255-1.221,4.423,4.423,0,0,0,3.1,1.221h.246a6.931,6.931,0,0,0,6.859,5.739,7.4,7.4,0,0,0,7.159-5.739h.988a5.219,5.219,0,0,0,5.089-4.665l.968-10.726c0-.014,0-.029,0-.043s0-.044.005-.066S67.13,95.787,67.13,95.774Zm-49.717,18.1a3.853,3.853,0,0,1-3.868-3.972,4.105,4.105,0,0,1,4.076-3.972,3.853,3.853,0,0,1,3.868,3.972A4.1,4.1,0,0,1,17.413,113.874Zm35.59,0a3.854,3.854,0,0,1-3.868-3.972,4.105,4.105,0,0,1,4.076-3.972,3.853,3.853,0,0,1,3.868,3.972A4.1,4.1,0,0,1,53,113.874Zm9.988-7.429a1.913,1.913,0,0,1-1.84,1.69H60.082a6.932,6.932,0,0,0-6.788-5.383,7.4,7.4,0,0,0-7.069,5.383H45.9a1.349,1.349,0,0,1-1.015-.427,1.367,1.367,0,0,1-.335-1.061l2-22.195h4.6l-.729,8.08A4.4,4.4,0,0,0,54.855,97.4h8.951Z" transform="translate(0 -73.172)" fill="#2196f3"/>
</svg>
