<svg id="support" xmlns="http://www.w3.org/2000/svg" width="45.085" height="59.189" viewBox="0 0 45.085 59.189">
  <path id="Path_3" data-name="Path 3" d="M0,365.2v12.37H45.085V365.2a5.208,5.208,0,0,0-5.2-5.2H5.2A5.208,5.208,0,0,0,0,365.2Zm3.468,0A1.736,1.736,0,0,1,5.2,363.468H6.936V374.1H3.468Zm6.936-1.734h4.484l7.655,7.655,7.655-7.655h4.484V374.1H10.4ZM41.617,365.2v8.9H38.149V363.468h1.734A1.736,1.736,0,0,1,41.617,365.2Zm-16.325-1.734-2.75,2.75-2.75-2.75Zm0,0" transform="translate(0 -318.383)" fill="#2196f3"/>
  <path id="Path_4" data-name="Path 4" d="M35.512,34.681h2.636V31.213h1.734a5.208,5.208,0,0,0,5.2-5.2V22.543A22.543,22.543,0,0,0,0,22.543v3.468a5.208,5.208,0,0,0,5.2,5.2H7.829a15.6,15.6,0,0,0,27.684,3.468Zm4.37-6.936H38.052a15.6,15.6,0,0,0,.1-1.734V22.543a15.6,15.6,0,0,0-.1-1.734h1.831a1.736,1.736,0,0,1,1.734,1.734v3.468A1.736,1.736,0,0,1,39.883,27.745ZM22.542,3.468A19.108,19.108,0,0,1,40.924,17.445a5.2,5.2,0,0,0-1.041-.1H37.256a15.606,15.606,0,0,0-29.427,0H5.2a5.2,5.2,0,0,0-1.041.1A19.108,19.108,0,0,1,22.542,3.468ZM32.5,15.61a12.187,12.187,0,0,1-9.958,5.2H10.528A12.134,12.134,0,0,1,32.5,15.61ZM5.2,27.745a1.736,1.736,0,0,1-1.734-1.734V22.543A1.736,1.736,0,0,1,5.2,20.809H7.033a15.6,15.6,0,0,0-.1,1.734v3.468a15.6,15.6,0,0,0,.1,1.734Zm5.2-1.734V24.277H22.542A15.665,15.665,0,0,0,34.173,19.07a12.082,12.082,0,0,1,.507,3.472v3.468a12.067,12.067,0,0,1-1.173,5.2H27.744l-1.524-1.524a5.2,5.2,0,0,1-7.357,0l-2.452,2.452a8.671,8.671,0,0,0,11.333.806v1.734h3.283A12.132,12.132,0,0,1,10.4,26.011Zm0,0" transform="translate(0)" fill="#2196f3"/>
</svg>
